<?xml version="1.0" encoding="UTF-8" standalone="no"?>
<!DOCTYPE svg PUBLIC "-//W3C//DTD SVG 1.1//EN"
 "http://www.w3.org/Graphics/SVG/1.1/DTD/svg11.dtd">
<!-- Generated by graphviz version 2.42.3 (20191010.1750)
 -->
<!-- Title: %3 Pages: 1 -->
<svg width="677pt" height="319pt"
 viewBox="0.00 0.00 676.54 319.42" xmlns="http://www.w3.org/2000/svg" xmlns:xlink="http://www.w3.org/1999/xlink">
<g id="graph0" class="graph" transform="scale(1 1) rotate(0) translate(4 315.42)">
<title>%3</title>
<polygon fill="white" stroke="transparent" points="-4,4 -4,-315.42 672.54,-315.42 672.54,4 -4,4"/>
<g id="clust1" class="cluster">
<title>cluster4,459 x 7</title>
<path fill="none" stroke="black" d="M278.54,-114.36C278.54,-114.36 330.54,-114.36 330.54,-114.36 336.54,-114.36 342.54,-120.36 342.54,-126.36 342.54,-126.36 342.54,-190.36 342.54,-190.36 342.54,-196.36 336.54,-202.36 330.54,-202.36 330.54,-202.36 278.54,-202.36 278.54,-202.36 272.54,-202.36 266.54,-196.36 266.54,-190.36 266.54,-190.36 266.54,-126.36 266.54,-126.36 266.54,-120.36 272.54,-114.36 278.54,-114.36"/>
<text text-anchor="middle" x="308.29" y="-121.16" font-family="Times,serif" font-size="14.00">4,459 x 7</text>
</g>
<g id="clust2" class="cluster">
<title>cluster4,459</title>
<path fill="none" stroke="black" d="M470.54,-8C470.54,-8 648.54,-8 648.54,-8 654.54,-8 660.54,-14 660.54,-20 660.54,-20 660.54,-200.71 660.54,-200.71 660.54,-206.71 654.54,-212.71 648.54,-212.71 648.54,-212.71 470.54,-212.71 470.54,-212.71 464.54,-212.71 458.54,-206.71 458.54,-200.71 458.54,-200.71 458.54,-20 458.54,-20 458.54,-14 464.54,-8 470.54,-8"/>
<text text-anchor="middle" x="636.79" y="-14.8" font-family="Times,serif" font-size="14.00">4,459</text>
</g>
<g id="clust3" class="cluster">
<title>cluster9 x 5 x 7</title>
<path fill="none" stroke="black" d="M362.54,-104C362.54,-104 438.54,-104 438.54,-104 444.54,-104 450.54,-110 450.54,-116 450.54,-116 450.54,-200.71 450.54,-200.71 450.54,-206.71 444.54,-212.71 438.54,-212.71 438.54,-212.71 362.54,-212.71 362.54,-212.71 356.54,-212.71 350.54,-206.71 350.54,-200.71 350.54,-200.71 350.54,-116 350.54,-116 350.54,-110 356.54,-104 362.54,-104"/>
<text text-anchor="middle" x="418.04" y="-110.8" font-family="Times,serif" font-size="14.00">9 x 5 x 7</text>
</g>
<g id="clust4" class="cluster">
<title>cluster9 x 5</title>
<path fill="none" stroke="black" d="M162.54,-104C162.54,-104 246.54,-104 246.54,-104 252.54,-104 258.54,-110 258.54,-116 258.54,-116 258.54,-200.71 258.54,-200.71 258.54,-206.71 252.54,-212.71 246.54,-212.71 246.54,-212.71 162.54,-212.71 162.54,-212.71 156.54,-212.71 150.54,-206.71 150.54,-200.71 150.54,-200.71 150.54,-116 150.54,-116 150.54,-110 156.54,-104 162.54,-104"/>
<text text-anchor="middle" x="236.54" y="-110.8" font-family="Times,serif" font-size="14.00">9 x 5</text>
</g>
<g id="clust5" class="cluster">
<title>cluster4,459 x 6</title>
<path fill="none" stroke="black" d="M354.54,-8C354.54,-8 438.54,-8 438.54,-8 444.54,-8 450.54,-14 450.54,-20 450.54,-20 450.54,-84 450.54,-84 450.54,-90 444.54,-96 438.54,-96 438.54,-96 354.54,-96 354.54,-96 348.54,-96 342.54,-90 342.54,-84 342.54,-84 342.54,-20 342.54,-20 342.54,-14 348.54,-8 354.54,-8"/>
<text text-anchor="middle" x="416.29" y="-14.8" font-family="Times,serif" font-size="14.00">4,459 x 6</text>
</g>
<!-- mu_intercept -->
<g id="node1" class="node">
<title>mu_intercept</title>
<ellipse fill="none" stroke="black" cx="63.54" cy="-276.07" rx="63.58" ry="35.21"/>
<text text-anchor="middle" x="63.54" y="-285.87" font-family="Times,serif" font-size="14.00">mu_intercept</text>
<text text-anchor="middle" x="63.54" y="-271.87" font-family="Times,serif" font-size="14.00">~</text>
<text text-anchor="middle" x="63.54" y="-257.87" font-family="Times,serif" font-size="14.00">Normal</text>
</g>
<!-- Intercept -->
<g id="node10" class="node">
<title>Intercept</title>
<ellipse fill="none" stroke="black" cx="204.54" cy="-169.36" rx="46.48" ry="35.21"/>
<text text-anchor="middle" x="204.54" y="-179.16" font-family="Times,serif" font-size="14.00">Intercept</text>
<text text-anchor="middle" x="204.54" y="-165.16" font-family="Times,serif" font-size="14.00">~</text>
<text text-anchor="middle" x="204.54" y="-151.16" font-family="Times,serif" font-size="14.00">Normal</text>
</g>
<!-- mu_intercept&#45;&gt;Intercept -->
<g id="edge4" class="edge">
<title>mu_intercept&#45;&gt;Intercept</title>
<path fill="none" stroke="black" d="M100.96,-247.28C120.23,-232.97 143.77,-215.48 163.54,-200.8"/>
<polygon fill="black" stroke="black" points="165.82,-203.47 171.76,-194.7 161.64,-197.85 165.82,-203.47"/>
</g>
<!-- sigma_intercept -->
<g id="node2" class="node">
<title>sigma_intercept</title>
<ellipse fill="none" stroke="black" cx="219.54" cy="-276.07" rx="74.58" ry="35.21"/>
<text text-anchor="middle" x="219.54" y="-285.87" font-family="Times,serif" font-size="14.00">sigma_intercept</text>
<text text-anchor="middle" x="219.54" y="-271.87" font-family="Times,serif" font-size="14.00">~</text>
<text text-anchor="middle" x="219.54" y="-257.87" font-family="Times,serif" font-size="14.00">HalfNormal</text>
</g>
<!-- sigma_intercept&#45;&gt;Intercept -->
<g id="edge5" class="edge">
<title>sigma_intercept&#45;&gt;Intercept</title>
<path fill="none" stroke="black" d="M214.63,-240.78C213.44,-232.46 212.15,-223.45 210.9,-214.74"/>
<polygon fill="black" stroke="black" points="214.35,-214.12 209.46,-204.72 207.42,-215.11 214.35,-214.12"/>
</g>
<!-- mu_beta -->
<g id="node3" class="node">
<title>mu_beta</title>
<ellipse fill="none" stroke="black" cx="386.54" cy="-276.07" rx="45.3" ry="35.21"/>
<text text-anchor="middle" x="386.54" y="-285.87" font-family="Times,serif" font-size="14.00">mu_beta</text>
<text text-anchor="middle" x="386.54" y="-271.87" font-family="Times,serif" font-size="14.00">~</text>
<text text-anchor="middle" x="386.54" y="-257.87" font-family="Times,serif" font-size="14.00">Normal</text>
</g>
<!-- beta -->
<g id="node9" class="node">
<title>beta</title>
<ellipse fill="none" stroke="black" cx="400.54" cy="-169.36" rx="41.61" ry="35.21"/>
<text text-anchor="middle" x="400.54" y="-179.16" font-family="Times,serif" font-size="14.00">beta</text>
<text text-anchor="middle" x="400.54" y="-165.16" font-family="Times,serif" font-size="14.00">~</text>
<text text-anchor="middle" x="400.54" y="-151.16" font-family="Times,serif" font-size="14.00">Normal</text>
</g>
<!-- mu_beta&#45;&gt;beta -->
<g id="edge3" class="edge">
<title>mu_beta&#45;&gt;beta</title>
<path fill="none" stroke="black" d="M391.13,-240.78C392.24,-232.46 393.44,-223.45 394.61,-214.74"/>
<polygon fill="black" stroke="black" points="398.09,-215.09 395.95,-204.72 391.15,-214.17 398.09,-215.09"/>
</g>
<!-- sigma_beta -->
<g id="node4" class="node">
<title>sigma_beta</title>
<ellipse fill="none" stroke="black" cx="509.54" cy="-276.07" rx="59.29" ry="35.21"/>
<text text-anchor="middle" x="509.54" y="-285.87" font-family="Times,serif" font-size="14.00">sigma_beta</text>
<text text-anchor="middle" x="509.54" y="-271.87" font-family="Times,serif" font-size="14.00">~</text>
<text text-anchor="middle" x="509.54" y="-257.87" font-family="Times,serif" font-size="14.00">HalfNormal</text>
</g>
<!-- sigma_beta&#45;&gt;beta -->
<g id="edge2" class="edge">
<title>sigma_beta&#45;&gt;beta</title>
<path fill="none" stroke="black" d="M478.89,-245.62C465.29,-232.55 449.22,-217.12 435.18,-203.63"/>
<polygon fill="black" stroke="black" points="437.26,-200.78 427.63,-196.37 432.41,-205.83 437.26,-200.78"/>
</g>
<!-- features -->
<g id="node5" class="node">
<title>features</title>
<path fill="lightgrey" stroke="black" d="M322.85,-194.36C322.85,-194.36 286.24,-194.36 286.24,-194.36 280.24,-194.36 274.24,-188.36 274.24,-182.36 274.24,-182.36 274.24,-156.36 274.24,-156.36 274.24,-150.36 280.24,-144.36 286.24,-144.36 286.24,-144.36 322.85,-144.36 322.85,-144.36 328.85,-144.36 334.85,-150.36 334.85,-156.36 334.85,-156.36 334.85,-182.36 334.85,-182.36 334.85,-188.36 328.85,-194.36 322.85,-194.36"/>
<text text-anchor="middle" x="304.54" y="-179.16" font-family="Times,serif" font-size="14.00">features</text>
<text text-anchor="middle" x="304.54" y="-165.16" font-family="Times,serif" font-size="14.00">~</text>
<text text-anchor="middle" x="304.54" y="-151.16" font-family="Times,serif" font-size="14.00">Data</text>
</g>
<!-- p -->
<g id="node11" class="node">
<title>p</title>
<polygon fill="none" stroke="black" points="442.74,-88 350.34,-88 350.34,-38 442.74,-38 442.74,-88"/>
<text text-anchor="middle" x="396.54" y="-72.8" font-family="Times,serif" font-size="14.00">p</text>
<text text-anchor="middle" x="396.54" y="-58.8" font-family="Times,serif" font-size="14.00">~</text>
<text text-anchor="middle" x="396.54" y="-44.8" font-family="Times,serif" font-size="14.00">Deterministic</text>
</g>
<!-- features&#45;&gt;p -->
<g id="edge9" class="edge">
<title>features&#45;&gt;p</title>
<path fill="none" stroke="black" d="M317.84,-144.13C325.39,-131.48 335.51,-116.15 346.54,-104 349.36,-100.9 352.43,-97.84 355.62,-94.89"/>
<polygon fill="black" stroke="black" points="358.02,-97.43 363.21,-88.2 353.39,-92.18 358.02,-97.43"/>
</g>
<!-- region -->
<g id="node6" class="node">
<title>region</title>
<path fill="lightgrey" stroke="black" d="M508.54,-194.36C508.54,-194.36 478.54,-194.36 478.54,-194.36 472.54,-194.36 466.54,-188.36 466.54,-182.36 466.54,-182.36 466.54,-156.36 466.54,-156.36 466.54,-150.36 472.54,-144.36 478.54,-144.36 478.54,-144.36 508.54,-144.36 508.54,-144.36 514.54,-144.36 520.54,-150.36 520.54,-156.36 520.54,-156.36 520.54,-182.36 520.54,-182.36 520.54,-188.36 514.54,-194.36 508.54,-194.36"/>
<text text-anchor="middle" x="493.54" y="-179.16" font-family="Times,serif" font-size="14.00">region</text>
<text text-anchor="middle" x="493.54" y="-165.16" font-family="Times,serif" font-size="14.00">~</text>
<text text-anchor="middle" x="493.54" y="-151.16" font-family="Times,serif" font-size="14.00">Data</text>
</g>
<!-- region&#45;&gt;p -->
<g id="edge6" class="edge">
<title>region&#45;&gt;p</title>
<path fill="none" stroke="black" d="M481.99,-144.07C475.15,-131.25 465.65,-115.79 454.54,-104 451.44,-100.71 448.02,-97.53 444.44,-94.5"/>
<polygon fill="black" stroke="black" points="446.43,-91.61 436.42,-88.14 442.08,-97.1 446.43,-91.61"/>
</g>
<!-- category -->
<g id="node7" class="node">
<title>category</title>
<path fill="lightgrey" stroke="black" d="M615.74,-88C615.74,-88 575.35,-88 575.35,-88 569.35,-88 563.35,-82 563.35,-76 563.35,-76 563.35,-50 563.35,-50 563.35,-44 569.35,-38 575.35,-38 575.35,-38 615.74,-38 615.74,-38 621.74,-38 627.74,-44 627.74,-50 627.74,-50 627.74,-76 627.74,-76 627.74,-82 621.74,-88 615.74,-88"/>
<text text-anchor="middle" x="595.54" y="-72.8" font-family="Times,serif" font-size="14.00">category</text>
<text text-anchor="middle" x="595.54" y="-58.8" font-family="Times,serif" font-size="14.00">~</text>
<text text-anchor="middle" x="595.54" y="-44.8" font-family="Times,serif" font-size="14.00">Data</text>
</g>
<!-- y -->
<g id="node8" class="node">
<title>y</title>
<ellipse fill="lightgrey" stroke="black" cx="595.54" cy="-169.36" rx="56.88" ry="35.21"/>
<text text-anchor="middle" x="595.54" y="-179.16" font-family="Times,serif" font-size="14.00">y</text>
<text text-anchor="middle" x="595.54" y="-165.16" font-family="Times,serif" font-size="14.00">~</text>
<text text-anchor="middle" x="595.54" y="-151.16" font-family="Times,serif" font-size="14.00">Categorical</text>
</g>
<!-- y&#45;&gt;category -->
<g id="edge1" class="edge">
<title>y&#45;&gt;category</title>
<path fill="none" stroke="black" d="M595.54,-133.9C595.54,-122.44 595.54,-109.69 595.54,-98.26"/>
<polygon fill="black" stroke="black" points="599.04,-98.19 595.54,-88.19 592.04,-98.19 599.04,-98.19"/>
</g>
<!-- beta&#45;&gt;p -->
<g id="edge8" class="edge">
<title>beta&#45;&gt;p</title>
<path fill="none" stroke="black" d="M399.22,-133.9C398.78,-122.44 398.29,-109.69 397.86,-98.26"/>
<polygon fill="black" stroke="black" points="401.35,-98.05 397.47,-88.19 394.36,-98.32 401.35,-98.05"/>
</g>
<!-- Intercept&#45;&gt;p -->
<g id="edge7" class="edge">
<title>Intercept&#45;&gt;p</title>
<path fill="none" stroke="black" d="M226.24,-137.73C236.11,-125.73 248.68,-112.76 262.54,-104 286,-89.17 315.23,-79.61 340.4,-73.57"/>
<polygon fill="black" stroke="black" points="341.21,-76.97 350.19,-71.34 339.66,-70.15 341.21,-76.97"/>
</g>
<!-- p&#45;&gt;y -->
<g id="edge10" class="edge">
<title>p&#45;&gt;y</title>
<path fill="none" stroke="black" d="M435.22,-88.06C441.5,-91.16 448.07,-93.96 454.54,-96 486.52,-106.07 499.21,-89.74 529.54,-104 542.48,-110.08 554.42,-119.75 564.49,-129.77"/>
<polygon fill="black" stroke="black" points="562.04,-132.27 571.48,-137.08 567.1,-127.43 562.04,-132.27"/>
</g>
</g>
</svg>