<?xml version="1.0" encoding="UTF-8" standalone="no"?>
<!DOCTYPE svg PUBLIC "-//W3C//DTD SVG 1.1//EN"
 "http://www.w3.org/Graphics/SVG/1.1/DTD/svg11.dtd">
<!-- Generated by graphviz version 2.42.3 (20191010.1750)
 -->
<!-- Title: %3 Pages: 1 -->
<svg width="676pt" height="319pt"
 viewBox="0.00 0.00 675.54 319.42" xmlns="http://www.w3.org/2000/svg" xmlns:xlink="http://www.w3.org/1999/xlink">
<g id="graph0" class="graph" transform="scale(1 1) rotate(0) translate(4 315.42)">
<title>%3</title>
<polygon fill="white" stroke="transparent" points="-4,4 -4,-315.42 671.54,-315.42 671.54,4 -4,4"/>
<g id="clust1" class="cluster">
<title>cluster4,459 x 21</title>
<path fill="none" stroke="black" d="M278.54,-114.36C278.54,-114.36 329.54,-114.36 329.54,-114.36 335.54,-114.36 341.54,-120.36 341.54,-126.36 341.54,-126.36 341.54,-190.36 341.54,-190.36 341.54,-196.36 335.54,-202.36 329.54,-202.36 329.54,-202.36 278.54,-202.36 278.54,-202.36 272.54,-202.36 266.54,-196.36 266.54,-190.36 266.54,-190.36 266.54,-126.36 266.54,-126.36 266.54,-120.36 272.54,-114.36 278.54,-114.36"/>
<text text-anchor="middle" x="303.79" y="-121.16" font-family="Times,serif" font-size="14.00">4,459 x 21</text>
</g>
<g id="clust2" class="cluster">
<title>cluster4,459</title>
<path fill="none" stroke="black" d="M469.54,-8C469.54,-8 647.54,-8 647.54,-8 653.54,-8 659.54,-14 659.54,-20 659.54,-20 659.54,-200.71 659.54,-200.71 659.54,-206.71 653.54,-212.71 647.54,-212.71 647.54,-212.71 469.54,-212.71 469.54,-212.71 463.54,-212.71 457.54,-206.71 457.54,-200.71 457.54,-200.71 457.54,-20 457.54,-20 457.54,-14 463.54,-8 469.54,-8"/>
<text text-anchor="middle" x="635.79" y="-14.8" font-family="Times,serif" font-size="14.00">4,459</text>
</g>
<g id="clust3" class="cluster">
<title>cluster9 x 5 x 21</title>
<path fill="none" stroke="black" d="M361.54,-104C361.54,-104 437.54,-104 437.54,-104 443.54,-104 449.54,-110 449.54,-116 449.54,-116 449.54,-200.71 449.54,-200.71 449.54,-206.71 443.54,-212.71 437.54,-212.71 437.54,-212.71 361.54,-212.71 361.54,-212.71 355.54,-212.71 349.54,-206.71 349.54,-200.71 349.54,-200.71 349.54,-116 349.54,-116 349.54,-110 355.54,-104 361.54,-104"/>
<text text-anchor="middle" x="413.54" y="-110.8" font-family="Times,serif" font-size="14.00">9 x 5 x 21</text>
</g>
<g id="clust4" class="cluster">
<title>cluster9 x 5</title>
<path fill="none" stroke="black" d="M162.54,-104C162.54,-104 246.54,-104 246.54,-104 252.54,-104 258.54,-110 258.54,-116 258.54,-116 258.54,-200.71 258.54,-200.71 258.54,-206.71 252.54,-212.71 246.54,-212.71 246.54,-212.71 162.54,-212.71 162.54,-212.71 156.54,-212.71 150.54,-206.71 150.54,-200.71 150.54,-200.71 150.54,-116 150.54,-116 150.54,-110 156.54,-104 162.54,-104"/>
<text text-anchor="middle" x="236.54" y="-110.8" font-family="Times,serif" font-size="14.00">9 x 5</text>
</g>
<g id="clust5" class="cluster">
<title>cluster4,459 x 6</title>
<path fill="none" stroke="black" d="M353.54,-8C353.54,-8 437.54,-8 437.54,-8 443.54,-8 449.54,-14 449.54,-20 449.54,-20 449.54,-84 449.54,-84 449.54,-90 443.54,-96 437.54,-96 437.54,-96 353.54,-96 353.54,-96 347.54,-96 341.54,-90 341.54,-84 341.54,-84 341.54,-20 341.54,-20 341.54,-14 347.54,-8 353.54,-8"/>
<text text-anchor="middle" x="415.29" y="-14.8" font-family="Times,serif" font-size="14.00">4,459 x 6</text>
</g>
<!-- mu_intercept -->
<g id="node1" class="node">
<title>mu_intercept</title>
<ellipse fill="none" stroke="black" cx="63.54" cy="-276.07" rx="63.58" ry="35.21"/>
<text text-anchor="middle" x="63.54" y="-285.87" font-family="Times,serif" font-size="14.00">mu_intercept</text>
<text text-anchor="middle" x="63.54" y="-271.87" font-family="Times,serif" font-size="14.00">~</text>
<text text-anchor="middle" x="63.54" y="-257.87" font-family="Times,serif" font-size="14.00">Normal</text>
</g>
<!-- Intercept -->
<g id="node10" class="node">
<title>Intercept</title>
<ellipse fill="none" stroke="black" cx="204.54" cy="-169.36" rx="46.48" ry="35.21"/>
<text text-anchor="middle" x="204.54" y="-179.16" font-family="Times,serif" font-size="14.00">Intercept</text>
<text text-anchor="middle" x="204.54" y="-165.16" font-family="Times,serif" font-size="14.00">~</text>
<text text-anchor="middle" x="204.54" y="-151.16" font-family="Times,serif" font-size="14.00">Normal</text>
</g>
<!-- mu_intercept&#45;&gt;Intercept -->
<g id="edge4" class="edge">
<title>mu_intercept&#45;&gt;Intercept</title>
<path fill="none" stroke="black" d="M100.96,-247.28C120.23,-232.97 143.77,-215.48 163.54,-200.8"/>
<polygon fill="black" stroke="black" points="165.82,-203.47 171.76,-194.7 161.64,-197.85 165.82,-203.47"/>
</g>
<!-- sigma_intercept -->
<g id="node2" class="node">
<title>sigma_intercept</title>
<ellipse fill="none" stroke="black" cx="219.54" cy="-276.07" rx="74.58" ry="35.21"/>
<text text-anchor="middle" x="219.54" y="-285.87" font-family="Times,serif" font-size="14.00">sigma_intercept</text>
<text text-anchor="middle" x="219.54" y="-271.87" font-family="Times,serif" font-size="14.00">~</text>
<text text-anchor="middle" x="219.54" y="-257.87" font-family="Times,serif" font-size="14.00">HalfNormal</text>
</g>
<!-- sigma_intercept&#45;&gt;Intercept -->
<g id="edge5" class="edge">
<title>sigma_intercept&#45;&gt;Intercept</title>
<path fill="none" stroke="black" d="M214.63,-240.78C213.44,-232.46 212.15,-223.45 210.9,-214.74"/>
<polygon fill="black" stroke="black" points="214.35,-214.12 209.46,-204.72 207.42,-215.11 214.35,-214.12"/>
</g>
<!-- mu_beta -->
<g id="node3" class="node">
<title>mu_beta</title>
<ellipse fill="none" stroke="black" cx="385.54" cy="-276.07" rx="45.3" ry="35.21"/>
<text text-anchor="middle" x="385.54" y="-285.87" font-family="Times,serif" font-size="14.00">mu_beta</text>
<text text-anchor="middle" x="385.54" y="-271.87" font-family="Times,serif" font-size="14.00">~</text>
<text text-anchor="middle" x="385.54" y="-257.87" font-family="Times,serif" font-size="14.00">Normal</text>
</g>
<!-- beta -->
<g id="node9" class="node">
<title>beta</title>
<ellipse fill="none" stroke="black" cx="399.54" cy="-169.36" rx="41.61" ry="35.21"/>
<text text-anchor="middle" x="399.54" y="-179.16" font-family="Times,serif" font-size="14.00">beta</text>
<text text-anchor="middle" x="399.54" y="-165.16" font-family="Times,serif" font-size="14.00">~</text>
<text text-anchor="middle" x="399.54" y="-151.16" font-family="Times,serif" font-size="14.00">Normal</text>
</g>
<!-- mu_beta&#45;&gt;beta -->
<g id="edge3" class="edge">
<title>mu_beta&#45;&gt;beta</title>
<path fill="none" stroke="black" d="M390.13,-240.78C391.24,-232.46 392.44,-223.45 393.61,-214.74"/>
<polygon fill="black" stroke="black" points="397.09,-215.09 394.95,-204.72 390.15,-214.17 397.09,-215.09"/>
</g>
<!-- sigma_beta -->
<g id="node4" class="node">
<title>sigma_beta</title>
<ellipse fill="none" stroke="black" cx="508.54" cy="-276.07" rx="59.29" ry="35.21"/>
<text text-anchor="middle" x="508.54" y="-285.87" font-family="Times,serif" font-size="14.00">sigma_beta</text>
<text text-anchor="middle" x="508.54" y="-271.87" font-family="Times,serif" font-size="14.00">~</text>
<text text-anchor="middle" x="508.54" y="-257.87" font-family="Times,serif" font-size="14.00">HalfNormal</text>
</g>
<!-- sigma_beta&#45;&gt;beta -->
<g id="edge2" class="edge">
<title>sigma_beta&#45;&gt;beta</title>
<path fill="none" stroke="black" d="M477.89,-245.62C464.29,-232.55 448.22,-217.12 434.18,-203.63"/>
<polygon fill="black" stroke="black" points="436.26,-200.78 426.63,-196.37 431.41,-205.83 436.26,-200.78"/>
</g>
<!-- input -->
<g id="node5" class="node">
<title>input</title>
<path fill="lightgrey" stroke="black" d="M321.54,-194.36C321.54,-194.36 291.54,-194.36 291.54,-194.36 285.54,-194.36 279.54,-188.36 279.54,-182.36 279.54,-182.36 279.54,-156.36 279.54,-156.36 279.54,-150.36 285.54,-144.36 291.54,-144.36 291.54,-144.36 321.54,-144.36 321.54,-144.36 327.54,-144.36 333.54,-150.36 333.54,-156.36 333.54,-156.36 333.54,-182.36 333.54,-182.36 333.54,-188.36 327.54,-194.36 321.54,-194.36"/>
<text text-anchor="middle" x="306.54" y="-179.16" font-family="Times,serif" font-size="14.00">input</text>
<text text-anchor="middle" x="306.54" y="-165.16" font-family="Times,serif" font-size="14.00">~</text>
<text text-anchor="middle" x="306.54" y="-151.16" font-family="Times,serif" font-size="14.00">Data</text>
</g>
<!-- p -->
<g id="node11" class="node">
<title>p</title>
<polygon fill="none" stroke="black" points="441.74,-88 349.34,-88 349.34,-38 441.74,-38 441.74,-88"/>
<text text-anchor="middle" x="395.54" y="-72.8" font-family="Times,serif" font-size="14.00">p</text>
<text text-anchor="middle" x="395.54" y="-58.8" font-family="Times,serif" font-size="14.00">~</text>
<text text-anchor="middle" x="395.54" y="-44.8" font-family="Times,serif" font-size="14.00">Deterministic</text>
</g>
<!-- input&#45;&gt;p -->
<g id="edge7" class="edge">
<title>input&#45;&gt;p</title>
<path fill="none" stroke="black" d="M318.6,-144.07C325.52,-131.4 334.94,-116.08 345.54,-104 348.31,-100.85 351.34,-97.76 354.5,-94.79"/>
<polygon fill="black" stroke="black" points="356.92,-97.32 362.06,-88.06 352.26,-92.1 356.92,-97.32"/>
</g>
<!-- region -->
<g id="node6" class="node">
<title>region</title>
<path fill="lightgrey" stroke="black" d="M507.54,-194.36C507.54,-194.36 477.54,-194.36 477.54,-194.36 471.54,-194.36 465.54,-188.36 465.54,-182.36 465.54,-182.36 465.54,-156.36 465.54,-156.36 465.54,-150.36 471.54,-144.36 477.54,-144.36 477.54,-144.36 507.54,-144.36 507.54,-144.36 513.54,-144.36 519.54,-150.36 519.54,-156.36 519.54,-156.36 519.54,-182.36 519.54,-182.36 519.54,-188.36 513.54,-194.36 507.54,-194.36"/>
<text text-anchor="middle" x="492.54" y="-179.16" font-family="Times,serif" font-size="14.00">region</text>
<text text-anchor="middle" x="492.54" y="-165.16" font-family="Times,serif" font-size="14.00">~</text>
<text text-anchor="middle" x="492.54" y="-151.16" font-family="Times,serif" font-size="14.00">Data</text>
</g>
<!-- region&#45;&gt;p -->
<g id="edge6" class="edge">
<title>region&#45;&gt;p</title>
<path fill="none" stroke="black" d="M480.99,-144.07C474.15,-131.25 464.65,-115.79 453.54,-104 450.44,-100.71 447.02,-97.53 443.44,-94.5"/>
<polygon fill="black" stroke="black" points="445.43,-91.61 435.42,-88.14 441.08,-97.1 445.43,-91.61"/>
</g>
<!-- y -->
<g id="node7" class="node">
<title>y</title>
<ellipse fill="lightgrey" stroke="black" cx="594.54" cy="-169.36" rx="56.88" ry="35.21"/>
<text text-anchor="middle" x="594.54" y="-179.16" font-family="Times,serif" font-size="14.00">y</text>
<text text-anchor="middle" x="594.54" y="-165.16" font-family="Times,serif" font-size="14.00">~</text>
<text text-anchor="middle" x="594.54" y="-151.16" font-family="Times,serif" font-size="14.00">Categorical</text>
</g>
<!-- output -->
<g id="node8" class="node">
<title>output</title>
<path fill="lightgrey" stroke="black" d="M609.54,-88C609.54,-88 579.54,-88 579.54,-88 573.54,-88 567.54,-82 567.54,-76 567.54,-76 567.54,-50 567.54,-50 567.54,-44 573.54,-38 579.54,-38 579.54,-38 609.54,-38 609.54,-38 615.54,-38 621.54,-44 621.54,-50 621.54,-50 621.54,-76 621.54,-76 621.54,-82 615.54,-88 609.54,-88"/>
<text text-anchor="middle" x="594.54" y="-72.8" font-family="Times,serif" font-size="14.00">output</text>
<text text-anchor="middle" x="594.54" y="-58.8" font-family="Times,serif" font-size="14.00">~</text>
<text text-anchor="middle" x="594.54" y="-44.8" font-family="Times,serif" font-size="14.00">Data</text>
</g>
<!-- y&#45;&gt;output -->
<g id="edge1" class="edge">
<title>y&#45;&gt;output</title>
<path fill="none" stroke="black" d="M594.54,-133.9C594.54,-122.44 594.54,-109.69 594.54,-98.26"/>
<polygon fill="black" stroke="black" points="598.04,-98.19 594.54,-88.19 591.04,-98.19 598.04,-98.19"/>
</g>
<!-- beta&#45;&gt;p -->
<g id="edge8" class="edge">
<title>beta&#45;&gt;p</title>
<path fill="none" stroke="black" d="M398.22,-133.9C397.78,-122.44 397.29,-109.69 396.86,-98.26"/>
<polygon fill="black" stroke="black" points="400.35,-98.05 396.47,-88.19 393.36,-98.32 400.35,-98.05"/>
</g>
<!-- Intercept&#45;&gt;p -->
<g id="edge9" class="edge">
<title>Intercept&#45;&gt;p</title>
<path fill="none" stroke="black" d="M226.25,-137.74C236.12,-125.74 248.69,-112.77 262.54,-104 285.64,-89.37 314.36,-79.85 339.2,-73.79"/>
<polygon fill="black" stroke="black" points="340.26,-77.14 349.22,-71.48 338.69,-70.31 340.26,-77.14"/>
</g>
<!-- p&#45;&gt;y -->
<g id="edge10" class="edge">
<title>p&#45;&gt;y</title>
<path fill="none" stroke="black" d="M434.22,-88.06C440.5,-91.16 447.07,-93.96 453.54,-96 485.52,-106.07 498.21,-89.74 528.54,-104 541.48,-110.08 553.42,-119.75 563.49,-129.77"/>
<polygon fill="black" stroke="black" points="561.04,-132.27 570.48,-137.08 566.1,-127.43 561.04,-132.27"/>
</g>
</g>
</svg>